<?xml version="1.0" standalone="no"?>
<!DOCTYPE svg PUBLIC "-//W3C//DTD SVG 20010904//EN"
 "http://www.w3.org/TR/2001/REC-SVG-20010904/DTD/svg10.dtd">
<svg version="1.0" xmlns="http://www.w3.org/2000/svg"
 width="209.000000pt" height="196.000000pt" viewBox="0 0 209.000000 196.000000"
 preserveAspectRatio="xMidYMid meet">
<metadata>
Created by potrace 1.10, written by Peter Selinger 2001-2011
</metadata>
<g transform="translate(0.000000,196.000000) scale(0.100000,-0.100000)"
fill="#000000" stroke="none">
<path d="M1023 1938 c-21 -24 -38 -60 -68 -140 -15 -41 -20 -46 -36 -37 -11 5
-19 16 -19 23 0 8 -7 17 -16 20 -9 3 -14 13 -11 21 4 9 1 12 -9 8 -7 -3 -14 0
-14 6 0 6 -6 11 -12 11 -7 1 -25 17 -40 37 -18 23 -28 30 -28 20 0 -10 22 -41
50 -70 27 -28 63 -68 79 -87 l30 -35 101 0 c98 0 100 1 79 18 -26 21 -84 22
-123 2 -15 -8 -30 -15 -33 -15 -6 0 5 36 25 80 8 19 14 41 13 48 -1 6 2 12 7
12 11 0 35 51 27 58 -6 6 14 32 25 32 8 0 91 -192 95 -219 1 -9 21 -20 46 -27
24 -6 71 -21 103 -33 33 -11 61 -20 62 -18 16 16 -99 67 -152 67 l-26 0 26 33
c15 17 30 37 34 42 4 6 27 31 51 58 24 26 41 50 39 53 -9 8 -79 -57 -72 -67 3
-5 1 -9 -4 -9 -13 0 -52 -36 -52 -48 0 -6 -9 -16 -20 -22 -16 -9 -20 -8 -20 5
0 8 -4 15 -10 15 -5 0 -7 6 -4 13 3 8 -2 20 -11 27 -8 7 -15 18 -15 24 0 14
-33 81 -50 101 -17 20 -23 19 -47 -7z"/>
<path d="M726 1854 c-3 -26 -6 -64 -6 -85 0 -21 -4 -49 -10 -63 l-9 -25 -50
22 c-28 12 -51 28 -51 35 0 7 -8 12 -19 10 -10 -2 -27 5 -38 14 -10 9 -24 14
-30 10 -8 -5 5 -17 35 -32 26 -14 49 -28 50 -32 2 -5 10 -8 17 -8 7 0 33 -15
57 -33 43 -33 44 -33 72 -16 16 10 60 25 98 34 73 18 91 38 31 34 -38 -3 -82
-21 -116 -48 -9 -8 -20 -12 -23 -9 -3 3 0 54 7 112 8 72 9 110 2 117 -7 7 -12
-6 -17 -37z"/>
<path d="M1354 1848 c3 -29 9 -88 13 -131 l6 -77 81 -54 c88 -58 180 -160 229
-251 91 -171 110 -400 48 -583 -11 -31 -17 -59 -14 -62 8 -8 34 32 40 63 3 15
9 27 13 27 5 0 6 18 3 40 -8 56 9 52 83 -18 85 -80 114 -103 114 -93 0 5 -18
28 -40 50 -22 22 -40 37 -40 34 0 -3 -9 4 -20 17 -11 12 -17 27 -13 33 3 6 1
7 -5 3 -7 -4 -13 -4 -13 1 -6 39 -5 51 6 47 7 -3 15 2 19 11 3 10 12 15 21 11
8 -3 15 -1 15 4 0 6 9 10 20 10 11 0 20 5 20 11 0 6 6 9 13 6 7 -2 23 4 36 14
18 14 19 19 7 19 -20 0 -155 -59 -177 -77 -28 -24 -42 -16 -35 20 16 77 18 98
8 110 -5 6 -12 25 -16 40 -6 26 -5 28 16 22 25 -8 64 -26 118 -55 42 -23 90
-35 89 -24 0 8 -91 55 -131 68 -10 3 -18 10 -18 16 0 5 -7 10 -15 10 -8 0 -14
5 -12 10 3 17 73 90 84 90 6 0 18 12 28 26 34 52 3 36 -74 -39 -43 -42 -82
-77 -86 -77 -3 0 -5 15 -4 34 2 19 -4 44 -14 59 -9 15 -17 35 -17 47 0 11 -4
20 -9 20 -5 0 -11 9 -14 20 -4 17 -1 19 27 15 114 -14 206 -17 206 -6 0 6 -10
11 -22 11 -24 1 -119 10 -153 15 -11 1 -25 3 -31 4 -6 0 -9 12 -6 26 2 14 8
22 13 19 5 -3 9 4 9 15 0 11 6 24 14 28 15 8 16 11 16 39 0 8 5 12 10 9 6 -4
10 -3 9 2 -1 4 1 16 5 25 4 10 6 22 4 28 -1 5 -28 -33 -58 -86 -53 -94 -71
-110 -78 -69 -1 10 -11 28 -20 40 -10 11 -26 32 -35 48 -10 15 -24 27 -32 27
-16 0 -20 15 -7 23 4 3 25 8 46 11 55 9 85 15 131 28 49 14 74 34 30 24 -16
-4 -39 -9 -50 -11 -11 -2 -42 -8 -70 -13 -27 -6 -53 -8 -56 -6 -4 2 -10 -2
-12 -8 -3 -7 -6 -2 -6 12 -1 14 -4 36 -8 49 -4 16 -3 22 5 17 6 -3 13 -2 16 3
4 5 2 12 -4 16 -6 4 -8 11 -4 16 11 18 14 58 4 64 -5 3 -11 -4 -14 -17 -2 -13
-10 -52 -17 -88 -11 -61 -28 -109 -29 -83 0 21 -84 93 -92 80 -5 -8 -8 -6 -8
6 0 11 -8 17 -25 17 -14 0 -25 3 -25 8 0 11 60 62 74 62 17 0 107 56 101 62
-9 9 -45 -3 -39 -13 7 -12 -3 -11 -26 1 -15 8 -17 7 -12 -12 3 -13 1 -19 -5
-15 -5 3 -26 -5 -46 -19 -33 -22 -37 -23 -38 -7 0 16 -1 16 -10 -2 -7 -15 -8
-11 -5 17 3 21 0 40 -6 44 -5 4 -8 19 -6 35 3 15 0 26 -4 23 -5 -3 -7 12 -4
34 4 31 1 42 -11 46 -14 6 -15 -1 -9 -46z"/>
<path d="M481 1715 c-1 -17 4 -46 10 -65 5 -19 12 -52 15 -74 4 -30 2 -37 -9
-33 -7 3 -45 8 -83 12 -38 4 -71 11 -74 15 -3 3 -16 3 -30 0 -21 -6 -14 -9 35
-19 33 -7 85 -20 115 -27 96 -25 91 -29 69 56 -35 131 -47 165 -48 135z"/>
<path d="M640 1620 c0 -5 -7 -6 -17 -3 -9 4 -14 2 -10 -3 3 -5 -8 -20 -24 -33
-33 -27 -43 -64 -10 -40 10 8 42 31 72 52 l54 37 -33 0 c-17 0 -32 -4 -32 -10z"/>
<path d="M472 1472 c-18 -17 -32 -37 -32 -46 0 -9 -4 -16 -10 -16 -5 0 -10 -8
-10 -19 0 -10 -7 -24 -15 -31 -12 -10 -18 -4 -37 34 -12 25 -26 46 -30 46 -4
0 -8 7 -8 15 0 8 -4 15 -10 15 -14 0 -12 -16 4 -32 7 -8 17 -25 21 -38 4 -14
12 -28 18 -32 18 -11 -14 -39 -42 -36 -37 4 -161 -22 -161 -34 0 -5 8 -7 18
-5 33 10 107 17 170 18 61 1 64 2 74 30 5 16 14 29 19 29 4 0 6 7 3 15 -4 8
-1 15 6 15 6 0 8 5 5 10 -3 6 -1 10 5 10 7 0 9 7 6 16 -4 12 -2 15 9 10 9 -3
19 3 25 15 20 36 5 42 -28 11z"/>
<path d="M610 1406 c0 -4 10 -26 23 -49 38 -69 55 -120 72 -214 14 -81 14 -99
0 -178 -9 -51 -30 -119 -50 -163 -19 -41 -35 -77 -35 -80 0 -11 38 46 69 103
92 169 90 315 -5 485 -39 69 -74 114 -74 96z"/>
<path d="M361 1271 c-24 -33 -40 -121 -23 -121 13 0 26 36 17 49 -3 5 -1 12 5
16 5 3 10 15 10 26 0 10 5 19 11 19 6 0 9 6 6 14 -3 8 -1 17 6 20 9 3 9 5 0 5
-6 1 -21 -12 -32 -28z"/>
<path d="M150 1263 c0 -5 31 -35 70 -68 38 -32 67 -62 64 -67 -3 -4 1 -8 8 -9
7 0 3 -5 -9 -11 -13 -6 -23 -17 -23 -25 0 -10 5 -11 19 -3 11 5 29 10 40 10
12 0 21 4 21 9 0 5 3 18 6 28 4 12 3 14 -3 6 -9 -13 -77 35 -112 79 -21 26
-81 64 -81 51z"/>
<path d="M1129 1228 c-63 -11 -142 -68 -168 -120 -27 -56 -28 -140 -3 -188 26
-48 72 -69 152 -69 77 -1 110 7 110 25 0 21 -13 23 -61 13 -58 -14 -109 2
-144 43 -25 30 -27 38 -22 96 4 58 9 68 43 103 48 50 119 73 179 59 43 -10 61
-1 52 23 -7 18 -77 25 -138 15z"/>
<path d="M596 1208 c-56 -90 -68 -115 -81 -170 -19 -80 -19 -156 0 -237 16
-65 61 -161 77 -161 4 0 8 -8 9 -17 0 -12 2 -13 6 -5 3 7 1 18 -5 25 -5 7 -21
48 -35 92 -43 131 -43 276 -2 370 55 123 65 155 31 103z"/>
<path d="M845 1218 c-2 -7 -18 -85 -35 -173 -17 -88 -33 -168 -36 -178 -5 -15
-1 -18 22 -15 26 3 29 7 40 73 6 39 21 108 32 155 37 157 37 150 7 150 -14 0
-28 -6 -30 -12z"/>
<path d="M1300 1210 c0 -18 7 -20 60 -20 33 0 60 -4 60 -9 0 -8 -25 -134 -53
-268 l-14 -63 26 0 c26 0 27 2 54 158 16 86 31 163 33 170 3 10 21 13 66 11
55 -2 62 0 69 19 l8 22 -154 0 c-148 0 -155 -1 -155 -20z"/>
<path d="M320 1067 c-19 -15 -15 -133 5 -141 10 -3 13 14 14 75 1 43 0 79 -1
79 -2 0 -10 -6 -18 -13z"/>
<path d="M138 1037 c-7 -7 -21 -16 -30 -20 -10 -3 -18 -11 -18 -16 0 -5 19 1
43 13 23 13 45 23 50 24 26 3 27 11 0 11 -17 1 -38 -5 -45 -12z"/>
<path d="M115 970 c3 -5 12 -10 19 -10 8 0 19 -7 26 -15 7 -8 18 -15 26 -15 7
0 25 -5 41 -12 15 -6 32 -10 37 -9 5 1 6 -5 3 -13 -4 -10 -1 -13 7 -10 8 3 17
1 21 -5 7 -12 -100 -121 -118 -121 -7 0 -6 -5 2 -12 10 -11 17 -8 34 12 24 27
112 100 121 100 3 0 6 -18 6 -39 0 -22 5 -52 12 -68 6 -15 12 -30 12 -33 3
-15 19 -30 31 -30 11 0 11 5 -1 30 -8 16 -23 61 -32 100 -13 53 -22 72 -37 76
-11 4 -38 15 -60 24 -134 60 -162 70 -150 50z"/>
<path d="M718 760 c-12 -13 -13 -20 -5 -23 9 -3 9 -11 1 -35 -13 -34 -3 -52
30 -52 18 0 19 1 3 13 -22 16 -13 77 12 78 10 0 11 2 4 6 -7 2 -13 11 -13 19
0 19 -11 16 -32 -6z"/>
<path d="M791 711 c-13 -63 -13 -61 -2 -61 5 0 14 13 19 29 6 16 22 37 36 46
26 17 34 35 16 35 -5 0 -15 -6 -22 -14 -11 -11 -15 -11 -24 2 -9 13 -14 6 -23
-37z"/>
<path d="M905 735 c-49 -48 -23 -113 27 -68 18 16 18 16 12 0 -3 -9 -1 -17 4
-17 15 0 18 8 26 63 7 46 7 47 -19 47 -14 0 -37 -11 -50 -25z m55 -4 c0 -13
-40 -61 -51 -61 -14 0 -11 23 7 48 15 22 44 30 44 13z"/>
<path d="M1027 753 c-2 -5 -7 -21 -11 -38 -4 -16 -9 -38 -12 -47 -3 -11 0 -18
9 -18 16 0 40 97 26 105 -4 3 -10 2 -12 -2z"/>
<path d="M1131 751 c-7 -5 -22 -6 -32 -4 -14 4 -19 0 -19 -15 0 -11 -3 -34 -6
-51 -4 -20 -3 -31 5 -31 6 0 11 9 11 19 0 11 5 23 10 26 6 4 8 16 5 28 -2 12
-2 17 1 11 3 -7 14 -10 24 -7 17 5 18 2 9 -32 -10 -35 -6 -56 7 -42 3 3 10 24
15 47 12 54 2 71 -30 51z"/>
<path d="M1277 750 c-3 -8 -8 -27 -11 -42 -3 -14 -9 -33 -12 -42 -4 -11 -1
-16 10 -16 9 0 16 8 16 18 0 24 28 62 46 62 11 0 14 -6 10 -20 -3 -11 -9 -29
-12 -40 -3 -13 -1 -20 9 -20 9 0 16 16 21 47 8 57 -4 72 -38 50 -23 -15 -25
-15 -29 1 -3 14 -5 14 -10 2z"/>
<path d="M1427 753 c-18 -5 -47 -51 -47 -76 0 -22 25 -27 49 -11 17 12 21 13
21 2 0 -22 -22 -38 -53 -38 -31 0 -29 -14 3 -23 31 -8 59 23 74 83 8 30 14 56
13 56 -8 6 -46 11 -60 7z m33 -22 c0 -4 -10 -20 -21 -35 -28 -36 -50 -19 -25
18 16 25 46 36 46 17z"/>
<path d="M1532 748 c-16 -16 -15 -28 4 -49 20 -22 11 -39 -16 -32 -11 3 -20 0
-20 -6 0 -17 56 -13 70 4 11 13 9 20 -9 38 -26 29 -27 41 -1 34 24 -6 36 8 14
17 -22 8 -28 8 -42 -6z"/>
<path d="M1204 705 c-6 -41 -1 -66 10 -54 11 11 17 99 8 99 -6 0 -14 -20 -18
-45z"/>
<path d="M173 680 c11 -7 32 -10 47 -8 17 3 26 0 23 -5 -4 -6 4 -7 21 -3 17 4
26 2 26 -5 0 -8 4 -8 15 1 11 10 18 9 30 -4 9 -9 23 -16 31 -16 8 0 14 -4 14
-10 0 -5 -5 -10 -10 -10 -10 0 -76 -134 -68 -136 2 0 -3 -8 -11 -18 -8 -9 -11
-19 -8 -23 7 -6 10 0 78 125 22 39 44 72 49 72 4 0 11 -13 15 -30 6 -28 78
-110 96 -110 14 0 10 16 -7 31 -20 16 -94 125 -94 137 0 5 -19 9 -42 9 -24 0
-83 3 -133 7 -70 6 -86 5 -72 -4z"/>
<path d="M1800 679 c-36 -4 -72 -6 -81 -3 -11 3 -24 -11 -42 -44 -15 -27 -40
-64 -56 -82 -39 -45 -29 -59 12 -17 35 34 69 96 61 109 -3 4 0 8 6 8 6 0 19
-14 28 -31 9 -17 31 -52 47 -78 17 -25 36 -58 43 -73 13 -31 27 -36 36 -12 3
9 2 12 -5 9 -5 -4 -17 11 -26 34 -9 22 -19 38 -23 36 -4 -3 -10 5 -14 18 -3
12 -14 32 -26 45 -17 18 -18 25 -8 41 9 14 23 19 60 19 26 1 54 4 61 9 6 4 30
9 51 10 21 1 41 5 44 8 7 7 -89 4 -168 -6z"/>
<path d="M1540 460 c-48 -44 -134 -98 -190 -120 -19 -7 -39 -17 -45 -22 -5 -4
-18 -8 -30 -8 -12 0 -26 -5 -33 -12 -6 -6 -62 -13 -137 -16 -69 -3 -125 -9
-125 -13 0 -5 3 -8 8 -7 4 1 20 -2 35 -7 16 -4 53 -3 84 4 31 6 58 9 60 7 3
-2 0 -12 -6 -23 -13 -23 -81 -189 -81 -199 0 -17 39 46 56 91 10 28 24 56 31
63 7 7 13 20 13 28 0 22 13 17 50 -21 19 -19 30 -35 26 -35 -9 0 24 -34 58
-60 39 -30 -2 29 -81 118 -35 39 -42 58 -19 49 18 -7 86 12 109 31 9 8 17 12
17 8 0 -4 7 0 16 8 8 9 19 16 24 16 9 0 6 -83 -5 -187 -4 -31 -2 -54 4 -58 7
-4 11 11 11 42 0 26 5 66 12 88 6 22 10 50 9 62 -2 17 2 21 13 17 9 -3 16 -10
16 -15 0 -4 6 -6 14 -3 7 3 20 -2 29 -10 9 -9 22 -16 29 -16 7 0 30 -11 50
-25 20 -14 42 -25 47 -25 24 0 8 17 -42 43 -92 50 -157 91 -157 99 0 4 16 10
35 14 19 3 39 12 46 20 6 8 18 14 26 14 8 0 11 5 8 10 -3 6 -2 10 3 10 5 0 15
11 22 25 7 13 16 22 20 20 4 -2 12 -30 19 -62 19 -94 34 -146 48 -173 l14 -25
-3 25 c-2 14 -7 28 -13 33 -6 4 -4 11 5 17 9 6 10 10 3 10 -6 0 -12 8 -11 18
0 9 -6 37 -14 62 -20 65 -14 83 25 76 18 -3 65 -12 105 -20 51 -10 72 -11 69
-3 -2 6 -52 21 -111 33 -60 12 -111 27 -115 33 -5 7 -23 -4 -51 -29z"/>
<path d="M505 476 c-16 -7 -60 -19 -97 -26 -65 -13 -80 -22 -58 -35 6 -3 10
-2 10 4 0 6 7 8 15 5 8 -4 22 -1 30 6 8 6 19 9 24 6 5 -4 12 -2 16 4 3 5 21
10 38 10 29 0 33 -3 35 -31 1 -17 -1 -36 -6 -43 -5 -6 -12 -40 -16 -76 -5 -57
-5 -62 8 -45 7 11 17 49 22 85 5 36 9 70 10 75 0 6 4 18 9 28 6 14 10 15 21 6
8 -6 11 -16 7 -23 -3 -6 -3 -8 2 -4 4 4 23 -6 42 -22 18 -17 43 -30 53 -30 11
0 20 -4 20 -10 0 -5 7 -7 15 -4 23 9 18 -9 -7 -26 -55 -35 -125 -76 -150 -87
-16 -7 -28 -17 -28 -23 0 -6 12 -4 30 5 17 9 30 13 30 10 0 -3 10 3 21 14 12
11 35 23 50 26 16 4 35 15 43 26 21 31 33 5 41 -93 5 -60 12 -91 23 -100 13
-11 15 -10 9 12 -4 14 -10 70 -13 125 l-7 100 21 -19 c12 -10 19 -22 17 -26
-3 -4 1 -8 8 -7 6 0 23 -1 37 -2 20 -1 22 -3 10 -12 -12 -8 -10 -9 8 -4 13 4
22 2 22 -4 0 -6 5 -11 11 -11 5 0 7 4 4 10 -4 6 7 10 25 10 38 0 34 -10 -42
-96 -73 -83 -89 -104 -82 -104 3 0 19 11 36 25 16 14 27 25 24 25 -4 0 7 14
23 31 18 19 35 28 42 23 7 -4 9 -3 6 4 -9 14 2 42 17 42 14 0 46 -36 46 -52 0
-6 7 -19 15 -28 9 -10 18 -30 21 -45 5 -27 44 -78 44 -58 0 21 -12 43 -21 37
-5 -3 -6 2 -3 10 3 8 -10 42 -30 76 -20 34 -36 72 -36 85 0 25 -1 26 -87 45
-90 20 -323 152 -323 182 0 11 -20 9 -55 -6z"/>
</g>
</svg>
